<svg width="70" height="50" viewBox="0 0 70 50" fill="none" xmlns="http://www.w3.org/2000/svg">
<rect opacity="0.7" width="70" height="50" rx="20" fill="#FF406E"/>
<path d="M28.9759 32.0248C27.2425 31.6237 26.0678 31.9389 24.6209 30.7212C23.0021 29.346 22.9878 27.0395 23.0021 25.0769C22.9878 23.1143 23.0021 20.8079 24.6209 19.4326C26.2397 18.0574 27.529 18.6161 29.6348 17.9284C31.7264 17.2408 34.6631 12.9718 37.915 14.8914C39.233 15.8226 40.0066 17.3411 40.3218 20.679" stroke="white" stroke-width="1.5" stroke-linecap="round" stroke-linejoin="round"/>
<path d="M40.4652 27.4117C40.2789 32.2251 39.448 34.1591 37.9152 35.2478C36.2534 36.2363 34.6633 35.5916 33.2451 34.6318" stroke="white" stroke-width="1.5" stroke-linecap="round" stroke-linejoin="round"/>
<path d="M48 13L23.4315 37.5684" stroke="white" stroke-width="1.5" stroke-linecap="round" stroke-linejoin="round"/>
</svg>
