<svg width="70" height="50" viewBox="0 0 70 50" fill="none" xmlns="http://www.w3.org/2000/svg">
<rect opacity="0.7" width="70" height="50" rx="20" fill="#27A565"/>
<path d="M44.4861 16.7957C47.833 21.7886 47.8427 28.3774 44.4861 33.3813" stroke="white" stroke-width="1.5" stroke-linecap="round" stroke-linejoin="round"/>
<path d="M41.2022 20.0743C42.9226 23.1918 42.9226 26.9962 41.2022 30.1027" stroke="white" stroke-width="1.5" stroke-linecap="round" stroke-linejoin="round"/>
<path fill-rule="evenodd" clip-rule="evenodd" d="M22.0003 25.0882C21.9966 26.7611 22.0003 28.7231 23.3815 29.8957C24.7639 31.0694 25.8596 30.585 27.6471 31.1732C29.4359 31.7625 31.9409 35.3961 34.7082 33.755C36.2041 32.6922 36.9093 30.6863 36.9093 25.0882C36.9093 19.4902 36.2358 17.5062 34.7082 16.4215C31.9409 14.7816 29.4359 18.4152 27.6471 19.0033C25.8596 19.5927 24.7639 19.1083 23.3815 20.2808C22.0003 21.4534 21.9966 23.4154 22.0003 25.0882Z" stroke="white" stroke-width="1.5" stroke-linecap="round" stroke-linejoin="round"/>
</svg>
