<svg width="1920" height="1348" viewBox="0 0 1920 1348" fill="none" xmlns="http://www.w3.org/2000/svg">
<g clip-path="url(#clip0)">
<rect width="1920" height="1348" fill="#80ACE6"/>
<path d="M286.465 264.752C286.465 260.986 285.492 258.15 283.545 256.246C281.641 254.299 278.149 252.289 273.071 250.216C263.804 246.703 257.139 242.599 253.076 237.901C249.014 233.162 246.982 227.576 246.982 221.144C246.982 213.357 249.733 207.115 255.234 202.418C260.778 197.678 267.803 195.309 276.309 195.309C281.979 195.309 287.036 196.515 291.479 198.927C295.923 201.297 299.329 204.661 301.699 209.02C304.111 213.378 305.317 218.329 305.317 223.873H286.719C286.719 219.557 285.788 216.277 283.926 214.034C282.106 211.749 279.461 210.606 275.991 210.606C272.733 210.606 270.194 211.58 268.374 213.526C266.554 215.431 265.645 218.012 265.645 221.271C265.645 223.81 266.66 226.116 268.691 228.189C270.723 230.221 274.32 232.337 279.482 234.537C288.496 237.796 295.034 241.795 299.097 246.534C303.201 251.274 305.254 257.304 305.254 264.625C305.254 272.665 302.694 278.95 297.573 283.478C292.453 288.006 285.492 290.27 276.689 290.27C270.723 290.27 265.285 289.042 260.376 286.588C255.467 284.133 251.616 280.621 248.823 276.051C246.073 271.48 244.697 266.085 244.697 259.864H263.423C263.423 265.196 264.46 269.068 266.533 271.48C268.607 273.893 271.992 275.099 276.689 275.099C283.206 275.099 286.465 271.65 286.465 264.752ZM337.627 203.434V220.318H346.831V233.839H337.627V267.926C337.627 270.634 337.987 272.496 338.706 273.512C339.468 274.527 340.907 275.035 343.022 275.035C344.757 275.035 346.175 274.887 347.275 274.591L347.148 288.556C344.102 289.698 340.801 290.27 337.246 290.27C325.651 290.27 319.79 283.626 319.663 270.338V233.839H311.729V220.318H319.663V203.434H337.627ZM389.36 289C388.853 287.942 388.345 286.165 387.837 283.668C384.621 288.069 380.262 290.27 374.761 290.27C369.006 290.27 364.224 288.365 360.415 284.557C356.649 280.748 354.766 275.818 354.766 269.767C354.766 262.573 357.051 257.008 361.621 253.072C366.234 249.137 372.856 247.127 381.489 247.042H386.948V241.52C386.948 238.43 386.419 236.251 385.361 234.981C384.303 233.712 382.759 233.077 380.728 233.077C376.242 233.077 373.999 235.701 373.999 240.948H356.035C356.035 234.601 358.405 229.374 363.145 225.27C367.926 221.122 373.957 219.049 381.235 219.049C388.768 219.049 394.587 221.017 398.691 224.952C402.839 228.845 404.912 234.431 404.912 241.71V274.02C404.997 279.944 405.843 284.578 407.451 287.921V289H389.36ZM378.76 276.178C380.749 276.178 382.441 275.776 383.838 274.972C385.234 274.168 386.271 273.215 386.948 272.115V257.833H382.632C379.585 257.833 377.173 258.806 375.396 260.753C373.66 262.7 372.793 265.302 372.793 268.561C372.793 273.639 374.782 276.178 378.76 276.178ZM434.365 220.318L434.873 227.11C438.936 221.736 444.246 219.049 450.806 219.049C462.612 219.049 468.685 227.322 469.023 243.868V289H450.996V245.201C450.996 241.308 450.404 238.494 449.219 236.759C448.076 234.981 446.045 234.093 443.125 234.093C439.867 234.093 437.327 235.764 435.508 239.107V289H417.48V220.318H434.365ZM479.497 252.564C479.497 241.308 481.401 232.908 485.21 227.364C489.019 221.821 494.562 219.049 501.841 219.049C507.131 219.049 511.532 221.334 515.044 225.904V191.5H533.135V289H516.821L515.996 282.018C512.314 287.519 507.575 290.27 501.777 290.27C494.583 290.27 489.082 287.519 485.273 282.018C481.507 276.516 479.582 268.434 479.497 257.77V252.564ZM497.524 257.071C497.524 263.842 498.244 268.582 499.683 271.29C501.121 273.956 503.555 275.289 506.982 275.289C510.537 275.289 513.224 273.702 515.044 270.528V239.171C513.267 235.785 510.601 234.093 507.046 234.093C503.745 234.093 501.333 235.426 499.81 238.092C498.286 240.758 497.524 245.497 497.524 252.311V257.071ZM579.028 289C578.521 287.942 578.013 286.165 577.505 283.668C574.289 288.069 569.93 290.27 564.429 290.27C558.674 290.27 553.892 288.365 550.083 284.557C546.317 280.748 544.434 275.818 544.434 269.767C544.434 262.573 546.719 257.008 551.289 253.072C555.902 249.137 562.524 247.127 571.157 247.042H576.616V241.52C576.616 238.43 576.087 236.251 575.029 234.981C573.971 233.712 572.427 233.077 570.396 233.077C565.91 233.077 563.667 235.701 563.667 240.948H545.703C545.703 234.601 548.073 229.374 552.812 225.27C557.594 221.122 563.625 219.049 570.903 219.049C578.436 219.049 584.255 221.017 588.359 224.952C592.507 228.845 594.58 234.431 594.58 241.71V274.02C594.665 279.944 595.511 284.578 597.119 287.921V289H579.028ZM568.428 276.178C570.417 276.178 572.109 275.776 573.506 274.972C574.902 274.168 575.939 273.215 576.616 272.115V257.833H572.3C569.253 257.833 566.841 258.806 565.063 260.753C563.328 262.7 562.461 265.302 562.461 268.561C562.461 273.639 564.45 276.178 568.428 276.178ZM641.489 237.647L635.522 237.14C630.614 237.14 627.292 239.298 625.557 243.614V289H607.529V220.318H624.478L624.985 227.745C627.821 221.948 631.735 219.049 636.729 219.049C638.76 219.049 640.41 219.324 641.68 219.874L641.489 237.647ZM647.075 252.564C647.075 241.308 648.979 232.908 652.788 227.364C656.597 221.821 662.14 219.049 669.419 219.049C674.709 219.049 679.11 221.334 682.622 225.904V191.5H700.713V289H684.399L683.574 282.018C679.893 287.519 675.153 290.27 669.355 290.27C662.161 290.27 656.66 287.519 652.852 282.018C649.085 276.516 647.16 268.434 647.075 257.77V252.564ZM665.103 257.071C665.103 263.842 665.822 268.582 667.261 271.29C668.7 273.956 671.133 275.289 674.561 275.289C678.115 275.289 680.802 273.702 682.622 270.528V239.171C680.845 235.785 678.179 234.093 674.624 234.093C671.323 234.093 668.911 235.426 667.388 238.092C665.864 240.758 665.103 245.497 665.103 252.311V257.071ZM768.76 275.353C773.965 275.353 776.61 271.967 776.694 265.196H793.579C793.494 272.687 791.188 278.738 786.66 283.351C782.132 287.963 776.292 290.27 769.141 290.27C760.296 290.27 753.547 287.519 748.892 282.018C744.237 276.516 741.867 268.412 741.782 257.706V252.247C741.782 241.456 744.067 233.225 748.638 227.555C753.25 221.884 760.042 219.049 769.014 219.049C776.589 219.049 782.555 221.397 786.914 226.095C791.273 230.75 793.494 237.372 793.579 245.963H776.694C776.652 242.112 776.017 239.15 774.79 237.076C773.563 235.003 771.532 233.966 768.696 233.966C765.565 233.966 763.322 235.087 761.968 237.33C760.614 239.531 759.894 243.826 759.81 250.216V257.198C759.81 262.784 760.085 266.699 760.635 268.941C761.185 271.142 762.095 272.771 763.364 273.829C764.634 274.845 766.432 275.353 768.76 275.353ZM836.362 289C835.854 287.942 835.347 286.165 834.839 283.668C831.623 288.069 827.264 290.27 821.763 290.27C816.007 290.27 811.226 288.365 807.417 284.557C803.651 280.748 801.768 275.818 801.768 269.767C801.768 262.573 804.053 257.008 808.623 253.072C813.236 249.137 819.858 247.127 828.491 247.042H833.95V241.52C833.95 238.43 833.421 236.251 832.363 234.981C831.305 233.712 829.761 233.077 827.729 233.077C823.244 233.077 821.001 235.701 821.001 240.948H803.037C803.037 234.601 805.407 229.374 810.146 225.27C814.928 221.122 820.959 219.049 828.237 219.049C835.77 219.049 841.589 221.017 845.693 224.952C849.84 228.845 851.914 234.431 851.914 241.71V274.02C851.999 279.944 852.845 284.578 854.453 287.921V289H836.362ZM825.762 276.178C827.751 276.178 829.443 275.776 830.84 274.972C832.236 274.168 833.273 273.215 833.95 272.115V257.833H829.634C826.587 257.833 824.175 258.806 822.397 260.753C820.662 262.7 819.795 265.302 819.795 268.561C819.795 273.639 821.784 276.178 825.762 276.178ZM883.779 289H865.752V191.5H883.779V289ZM922.5 275.353C927.705 275.353 930.35 271.967 930.435 265.196H947.319C947.235 272.687 944.928 278.738 940.4 283.351C935.872 287.963 930.033 290.27 922.881 290.27C914.036 290.27 907.287 287.519 902.632 282.018C897.977 276.516 895.607 268.412 895.522 257.706V252.247C895.522 241.456 897.808 233.225 902.378 227.555C906.991 221.884 913.783 219.049 922.754 219.049C930.329 219.049 936.296 221.397 940.654 226.095C945.013 230.75 947.235 237.372 947.319 245.963H930.435C930.392 242.112 929.757 239.15 928.53 237.076C927.303 235.003 925.272 233.966 922.437 233.966C919.305 233.966 917.062 235.087 915.708 237.33C914.354 239.531 913.634 243.826 913.55 250.216V257.198C913.55 262.784 913.825 266.699 914.375 268.941C914.925 271.142 915.835 272.771 917.104 273.829C918.374 274.845 920.173 275.353 922.5 275.353ZM991.245 282.716C987.521 287.752 982.528 290.27 976.265 290.27C969.959 290.27 965.177 288.111 961.919 283.795C958.66 279.436 957.031 273.11 957.031 264.815V220.318H974.995V265.26C975.08 271.946 977.301 275.289 981.66 275.289C985.765 275.289 988.727 273.512 990.547 269.957V220.318H1008.64V289H991.753L991.245 282.716ZM1040.31 289H1022.29V191.5H1040.31V289ZM1086.84 289C1086.33 287.942 1085.83 286.165 1085.32 283.668C1082.1 288.069 1077.74 290.27 1072.24 290.27C1066.49 290.27 1061.7 288.365 1057.9 284.557C1054.13 280.748 1052.25 275.818 1052.25 269.767C1052.25 262.573 1054.53 257.008 1059.1 253.072C1063.71 249.137 1070.34 247.127 1078.97 247.042H1084.43V241.52C1084.43 238.43 1083.9 236.251 1082.84 234.981C1081.78 233.712 1080.24 233.077 1078.21 233.077C1073.72 233.077 1071.48 235.701 1071.48 240.948H1053.52C1053.52 234.601 1055.89 229.374 1060.62 225.27C1065.41 221.122 1071.44 219.049 1078.72 219.049C1086.25 219.049 1092.07 221.017 1096.17 224.952C1100.32 228.845 1102.39 234.431 1102.39 241.71V274.02C1102.48 279.944 1103.32 284.578 1104.93 287.921V289H1086.84ZM1076.24 276.178C1078.23 276.178 1079.92 275.776 1081.32 274.972C1082.71 274.168 1083.75 273.215 1084.43 272.115V257.833H1080.11C1077.07 257.833 1074.65 258.806 1072.88 260.753C1071.14 262.7 1070.27 265.302 1070.27 268.561C1070.27 273.639 1072.26 276.178 1076.24 276.178ZM1136.29 203.434V220.318H1145.49V233.839H1136.29V267.926C1136.29 270.634 1136.65 272.496 1137.37 273.512C1138.13 274.527 1139.57 275.035 1141.68 275.035C1143.42 275.035 1144.84 274.887 1145.94 274.591L1145.81 288.556C1142.76 289.698 1139.46 290.27 1135.91 290.27C1124.31 290.27 1118.45 283.626 1118.33 270.338V233.839H1110.39V220.318H1118.33V203.434H1136.29ZM1151.4 252.438C1151.4 242.027 1153.85 233.86 1158.76 227.936C1163.67 222.011 1170.46 219.049 1179.14 219.049C1187.9 219.049 1194.73 222.011 1199.64 227.936C1204.55 233.86 1207 242.07 1207 252.564V256.944C1207 267.397 1204.57 275.564 1199.7 281.446C1194.84 287.328 1188.02 290.27 1179.26 290.27C1170.46 290.27 1163.61 287.328 1158.7 281.446C1153.83 275.522 1151.4 267.312 1151.4 256.817V252.438ZM1169.42 256.944C1169.42 269.216 1172.7 275.353 1179.26 275.353C1185.31 275.353 1188.57 270.232 1189.04 259.991L1189.1 252.438C1189.1 246.174 1188.23 241.541 1186.5 238.536C1184.76 235.489 1182.31 233.966 1179.14 233.966C1176.09 233.966 1173.7 235.489 1171.96 238.536C1170.27 241.541 1169.42 246.174 1169.42 252.438V256.944ZM1252.13 237.647L1246.17 237.14C1241.26 237.14 1237.94 239.298 1236.2 243.614V289H1218.17V220.318H1235.12L1235.63 227.745C1238.47 221.948 1242.38 219.049 1247.37 219.049C1249.4 219.049 1251.05 219.324 1252.32 219.874L1252.13 237.647Z" fill="white"/>
<path d="M288.438 419.953C287.734 425.969 285.508 430.617 281.758 433.898C278.034 437.154 273.073 438.781 266.875 438.781C260.156 438.781 254.766 436.372 250.703 431.555C246.667 426.737 244.648 420.292 244.648 412.219V406.75C244.648 401.464 245.586 396.815 247.461 392.805C249.362 388.794 252.044 385.721 255.508 383.586C258.971 381.424 262.982 380.344 267.539 380.344C273.581 380.344 278.424 382.036 282.07 385.422C285.716 388.781 287.839 393.443 288.438 399.406H280.898C280.247 394.875 278.828 391.594 276.641 389.562C274.479 387.531 271.445 386.516 267.539 386.516C262.747 386.516 258.984 388.286 256.25 391.828C253.542 395.37 252.188 400.409 252.188 406.945V412.453C252.188 418.625 253.477 423.534 256.055 427.18C258.633 430.826 262.24 432.648 266.875 432.648C271.042 432.648 274.232 431.711 276.445 429.836C278.685 427.935 280.169 424.641 280.898 419.953H288.438ZM318.008 402.219C316.914 402.036 315.729 401.945 314.453 401.945C309.714 401.945 306.497 403.964 304.805 408V438H297.578V395.734H304.609L304.727 400.617C307.096 396.841 310.456 394.953 314.805 394.953C316.211 394.953 317.279 395.135 318.008 395.5V402.219ZM341.445 438.781C335.716 438.781 331.055 436.906 327.461 433.156C323.867 429.38 322.07 424.341 322.07 418.039V416.711C322.07 412.518 322.865 408.781 324.453 405.5C326.068 402.193 328.307 399.615 331.172 397.766C334.062 395.891 337.188 394.953 340.547 394.953C346.042 394.953 350.312 396.763 353.359 400.383C356.406 404.003 357.93 409.185 357.93 415.93V418.938H329.297C329.401 423.104 330.612 426.477 332.93 429.055C335.273 431.607 338.242 432.883 341.836 432.883C344.388 432.883 346.549 432.362 348.32 431.32C350.091 430.279 351.641 428.898 352.969 427.18L357.383 430.617C353.841 436.06 348.529 438.781 341.445 438.781ZM340.547 400.891C337.63 400.891 335.182 401.958 333.203 404.094C331.224 406.203 330 409.172 329.531 413H350.703V412.453C350.495 408.781 349.505 405.943 347.734 403.938C345.964 401.906 343.568 400.891 340.547 400.891ZM392.422 438C392.005 437.167 391.667 435.682 391.406 433.547C388.047 437.036 384.036 438.781 379.375 438.781C375.208 438.781 371.784 437.609 369.102 435.266C366.445 432.896 365.117 429.901 365.117 426.281C365.117 421.88 366.784 418.469 370.117 416.047C373.477 413.599 378.19 412.375 384.258 412.375H391.289V409.055C391.289 406.529 390.534 404.523 389.023 403.039C387.513 401.529 385.286 400.773 382.344 400.773C379.766 400.773 377.604 401.424 375.859 402.727C374.115 404.029 373.242 405.604 373.242 407.453H365.977C365.977 405.344 366.719 403.312 368.203 401.359C369.714 399.38 371.745 397.818 374.297 396.672C376.875 395.526 379.701 394.953 382.773 394.953C387.643 394.953 391.458 396.177 394.219 398.625C396.979 401.047 398.411 404.393 398.516 408.664V428.117C398.516 431.997 399.01 435.083 400 437.375V438H392.422ZM380.43 432.492C382.695 432.492 384.844 431.906 386.875 430.734C388.906 429.562 390.378 428.039 391.289 426.164V417.492H385.625C376.771 417.492 372.344 420.083 372.344 425.266C372.344 427.531 373.099 429.302 374.609 430.578C376.12 431.854 378.06 432.492 380.43 432.492ZM419.648 385.5V395.734H427.539V401.32H419.648V427.531C419.648 429.224 420 430.5 420.703 431.359C421.406 432.193 422.604 432.609 424.297 432.609C425.13 432.609 426.276 432.453 427.734 432.141V438C425.833 438.521 423.984 438.781 422.188 438.781C418.958 438.781 416.523 437.805 414.883 435.852C413.242 433.898 412.422 431.125 412.422 427.531V401.32H404.727V395.734H412.422V385.5H419.648ZM453.555 438.781C447.826 438.781 443.164 436.906 439.57 433.156C435.977 429.38 434.18 424.341 434.18 418.039V416.711C434.18 412.518 434.974 408.781 436.562 405.5C438.177 402.193 440.417 399.615 443.281 397.766C446.172 395.891 449.297 394.953 452.656 394.953C458.151 394.953 462.422 396.763 465.469 400.383C468.516 404.003 470.039 409.185 470.039 415.93V418.938H441.406C441.51 423.104 442.721 426.477 445.039 429.055C447.383 431.607 450.352 432.883 453.945 432.883C456.497 432.883 458.659 432.362 460.43 431.32C462.201 430.279 463.75 428.898 465.078 427.18L469.492 430.617C465.951 436.06 460.638 438.781 453.555 438.781ZM452.656 400.891C449.74 400.891 447.292 401.958 445.312 404.094C443.333 406.203 442.109 409.172 441.641 413H462.812V412.453C462.604 408.781 461.615 405.943 459.844 403.938C458.073 401.906 455.677 400.891 452.656 400.891ZM476.68 416.516C476.68 410.031 478.216 404.823 481.289 400.891C484.362 396.932 488.385 394.953 493.359 394.953C498.307 394.953 502.227 396.646 505.117 400.031V378H512.344V438H505.703L505.352 433.469C502.461 437.01 498.438 438.781 493.281 438.781C488.385 438.781 484.388 436.776 481.289 432.766C478.216 428.755 476.68 423.521 476.68 417.062V416.516ZM483.906 417.336C483.906 422.128 484.896 425.878 486.875 428.586C488.854 431.294 491.589 432.648 495.078 432.648C499.661 432.648 503.008 430.591 505.117 426.477V407.062C502.956 403.078 499.635 401.086 495.156 401.086C491.615 401.086 488.854 402.453 486.875 405.188C484.896 407.922 483.906 411.971 483.906 417.336ZM546.992 438V401.32H540.312V395.734H546.992V391.398C546.992 386.867 548.203 383.365 550.625 380.891C553.047 378.417 556.471 377.18 560.898 377.18C562.565 377.18 564.219 377.401 565.859 377.844L565.469 383.703C564.245 383.469 562.943 383.352 561.562 383.352C559.219 383.352 557.409 384.042 556.133 385.422C554.857 386.776 554.219 388.729 554.219 391.281V395.734H563.242V401.32H554.219V438H546.992ZM569.336 416.477C569.336 412.336 570.143 408.612 571.758 405.305C573.398 401.997 575.664 399.445 578.555 397.648C581.471 395.852 584.792 394.953 588.516 394.953C594.271 394.953 598.919 396.945 602.461 400.93C606.029 404.914 607.812 410.214 607.812 416.828V417.336C607.812 421.451 607.018 425.148 605.43 428.43C603.867 431.685 601.615 434.224 598.672 436.047C595.755 437.87 592.396 438.781 588.594 438.781C582.865 438.781 578.216 436.789 574.648 432.805C571.107 428.82 569.336 423.547 569.336 416.984V416.477ZM576.602 417.336C576.602 422.023 577.682 425.786 579.844 428.625C582.031 431.464 584.948 432.883 588.594 432.883C592.266 432.883 595.182 431.451 597.344 428.586C599.505 425.695 600.586 421.659 600.586 416.477C600.586 411.841 599.479 408.091 597.266 405.227C595.078 402.336 592.161 400.891 588.516 400.891C584.948 400.891 582.07 402.31 579.883 405.148C577.695 407.987 576.602 412.049 576.602 417.336ZM637.305 402.219C636.211 402.036 635.026 401.945 633.75 401.945C629.01 401.945 625.794 403.964 624.102 408V438H616.875V395.734H623.906L624.023 400.617C626.393 396.841 629.753 394.953 634.102 394.953C635.508 394.953 636.576 395.135 637.305 395.5V402.219ZM688.438 426.789C688.438 424.836 687.695 423.326 686.211 422.258C684.753 421.164 682.188 420.227 678.516 419.445C674.87 418.664 671.966 417.727 669.805 416.633C667.669 415.539 666.081 414.237 665.039 412.727C664.023 411.216 663.516 409.419 663.516 407.336C663.516 403.872 664.974 400.943 667.891 398.547C670.833 396.151 674.583 394.953 679.141 394.953C683.932 394.953 687.812 396.19 690.781 398.664C693.776 401.138 695.273 404.302 695.273 408.156H688.008C688.008 406.177 687.161 404.471 685.469 403.039C683.802 401.607 681.693 400.891 679.141 400.891C676.51 400.891 674.453 401.464 672.969 402.609C671.484 403.755 670.742 405.253 670.742 407.102C670.742 408.846 671.432 410.161 672.812 411.047C674.193 411.932 676.68 412.779 680.273 413.586C683.893 414.393 686.823 415.357 689.062 416.477C691.302 417.596 692.956 418.951 694.023 420.539C695.117 422.102 695.664 424.016 695.664 426.281C695.664 430.057 694.154 433.091 691.133 435.383C688.112 437.648 684.193 438.781 679.375 438.781C675.99 438.781 672.995 438.182 670.391 436.984C667.786 435.786 665.742 434.12 664.258 431.984C662.799 429.823 662.07 427.492 662.07 424.992H669.297C669.427 427.414 670.391 429.341 672.188 430.773C674.01 432.18 676.406 432.883 679.375 432.883C682.109 432.883 684.297 432.336 685.938 431.242C687.604 430.122 688.438 428.638 688.438 426.789ZM712.93 438H705.703V395.734H712.93V438ZM705.117 384.523C705.117 383.352 705.469 382.362 706.172 381.555C706.901 380.747 707.969 380.344 709.375 380.344C710.781 380.344 711.849 380.747 712.578 381.555C713.307 382.362 713.672 383.352 713.672 384.523C713.672 385.695 713.307 386.672 712.578 387.453C711.849 388.234 710.781 388.625 709.375 388.625C707.969 388.625 706.901 388.234 706.172 387.453C705.469 386.672 705.117 385.695 705.117 384.523ZM731.328 395.734L731.523 400.422C734.622 396.776 738.802 394.953 744.062 394.953C749.974 394.953 753.997 397.219 756.133 401.75C757.539 399.719 759.362 398.078 761.602 396.828C763.867 395.578 766.536 394.953 769.609 394.953C778.88 394.953 783.594 399.862 783.75 409.68V438H776.523V410.109C776.523 407.089 775.833 404.836 774.453 403.352C773.073 401.841 770.755 401.086 767.5 401.086C764.818 401.086 762.591 401.893 760.82 403.508C759.049 405.096 758.021 407.245 757.734 409.953V438H750.469V410.305C750.469 404.159 747.461 401.086 741.445 401.086C736.706 401.086 733.464 403.104 731.719 407.141V438H724.492V395.734H731.328ZM830.391 417.336C830.391 423.768 828.919 428.951 825.977 432.883C823.034 436.815 819.049 438.781 814.023 438.781C808.893 438.781 804.857 437.154 801.914 433.898V454.25H794.688V395.734H801.289L801.641 400.422C804.583 396.776 808.672 394.953 813.906 394.953C818.984 394.953 822.995 396.867 825.938 400.695C828.906 404.523 830.391 409.849 830.391 416.672V417.336ZM823.164 416.516C823.164 411.75 822.148 407.987 820.117 405.227C818.086 402.466 815.299 401.086 811.758 401.086C807.383 401.086 804.102 403.026 801.914 406.906V427.102C804.076 430.956 807.383 432.883 811.836 432.883C815.299 432.883 818.047 431.516 820.078 428.781C822.135 426.021 823.164 421.932 823.164 416.516ZM847.461 438H840.234V378H847.461V438ZM876.602 438.781C870.872 438.781 866.211 436.906 862.617 433.156C859.023 429.38 857.227 424.341 857.227 418.039V416.711C857.227 412.518 858.021 408.781 859.609 405.5C861.224 402.193 863.464 399.615 866.328 397.766C869.219 395.891 872.344 394.953 875.703 394.953C881.198 394.953 885.469 396.763 888.516 400.383C891.562 404.003 893.086 409.185 893.086 415.93V418.938H864.453C864.557 423.104 865.768 426.477 868.086 429.055C870.43 431.607 873.398 432.883 876.992 432.883C879.544 432.883 881.706 432.362 883.477 431.32C885.247 430.279 886.797 428.898 888.125 427.18L892.539 430.617C888.997 436.06 883.685 438.781 876.602 438.781ZM875.703 400.891C872.786 400.891 870.339 401.958 868.359 404.094C866.38 406.203 865.156 409.172 864.688 413H885.859V412.453C885.651 408.781 884.661 405.943 882.891 403.938C881.12 401.906 878.724 400.891 875.703 400.891ZM938.281 432.883C940.859 432.883 943.112 432.102 945.039 430.539C946.966 428.977 948.034 427.023 948.242 424.68H955.078C954.948 427.102 954.115 429.406 952.578 431.594C951.042 433.781 948.984 435.526 946.406 436.828C943.854 438.13 941.146 438.781 938.281 438.781C932.526 438.781 927.943 436.867 924.531 433.039C921.146 429.185 919.453 423.924 919.453 417.258V416.047C919.453 411.932 920.208 408.273 921.719 405.07C923.229 401.867 925.391 399.38 928.203 397.609C931.042 395.839 934.388 394.953 938.242 394.953C942.982 394.953 946.914 396.372 950.039 399.211C953.19 402.049 954.87 405.734 955.078 410.266H948.242C948.034 407.531 946.992 405.292 945.117 403.547C943.268 401.776 940.977 400.891 938.242 400.891C934.57 400.891 931.719 402.219 929.688 404.875C927.682 407.505 926.68 411.32 926.68 416.32V417.688C926.68 422.557 927.682 426.307 929.688 428.938C931.693 431.568 934.557 432.883 938.281 432.883ZM989.297 438C988.88 437.167 988.542 435.682 988.281 433.547C984.922 437.036 980.911 438.781 976.25 438.781C972.083 438.781 968.659 437.609 965.977 435.266C963.32 432.896 961.992 429.901 961.992 426.281C961.992 421.88 963.659 418.469 966.992 416.047C970.352 413.599 975.065 412.375 981.133 412.375H988.164V409.055C988.164 406.529 987.409 404.523 985.898 403.039C984.388 401.529 982.161 400.773 979.219 400.773C976.641 400.773 974.479 401.424 972.734 402.727C970.99 404.029 970.117 405.604 970.117 407.453H962.852C962.852 405.344 963.594 403.312 965.078 401.359C966.589 399.38 968.62 397.818 971.172 396.672C973.75 395.526 976.576 394.953 979.648 394.953C984.518 394.953 988.333 396.177 991.094 398.625C993.854 401.047 995.286 404.393 995.391 408.664V428.117C995.391 431.997 995.885 435.083 996.875 437.375V438H989.297ZM977.305 432.492C979.57 432.492 981.719 431.906 983.75 430.734C985.781 429.562 987.253 428.039 988.164 426.164V417.492H982.5C973.646 417.492 969.219 420.083 969.219 425.266C969.219 427.531 969.974 429.302 971.484 430.578C972.995 431.854 974.935 432.492 977.305 432.492ZM1014.57 438H1007.34V378H1014.57V438ZM1043.12 432.883C1045.7 432.883 1047.96 432.102 1049.88 430.539C1051.81 428.977 1052.88 427.023 1053.09 424.68H1059.92C1059.79 427.102 1058.96 429.406 1057.42 431.594C1055.89 433.781 1053.83 435.526 1051.25 436.828C1048.7 438.13 1045.99 438.781 1043.12 438.781C1037.37 438.781 1032.79 436.867 1029.38 433.039C1025.99 429.185 1024.3 423.924 1024.3 417.258V416.047C1024.3 411.932 1025.05 408.273 1026.56 405.07C1028.07 401.867 1030.23 399.38 1033.05 397.609C1035.89 395.839 1039.23 394.953 1043.09 394.953C1047.83 394.953 1051.76 396.372 1054.88 399.211C1058.03 402.049 1059.71 405.734 1059.92 410.266H1053.09C1052.88 407.531 1051.84 405.292 1049.96 403.547C1048.11 401.776 1045.82 400.891 1043.09 400.891C1039.41 400.891 1036.56 402.219 1034.53 404.875C1032.53 407.505 1031.52 411.32 1031.52 416.32V417.688C1031.52 422.557 1032.53 426.307 1034.53 428.938C1036.54 431.568 1039.4 432.883 1043.12 432.883ZM1094.14 433.82C1091.33 437.128 1087.2 438.781 1081.76 438.781C1077.25 438.781 1073.82 437.479 1071.45 434.875C1069.1 432.245 1067.92 428.365 1067.89 423.234V395.734H1075.12V423.039C1075.12 429.445 1077.72 432.648 1082.93 432.648C1088.45 432.648 1092.12 430.591 1093.95 426.477V395.734H1101.17V438H1094.3L1094.14 433.82ZM1120.04 438H1112.81V378H1120.04V438ZM1157.73 438C1157.32 437.167 1156.98 435.682 1156.72 433.547C1153.36 437.036 1149.35 438.781 1144.69 438.781C1140.52 438.781 1137.1 437.609 1134.41 435.266C1131.76 432.896 1130.43 429.901 1130.43 426.281C1130.43 421.88 1132.1 418.469 1135.43 416.047C1138.79 413.599 1143.5 412.375 1149.57 412.375H1156.6V409.055C1156.6 406.529 1155.85 404.523 1154.34 403.039C1152.83 401.529 1150.6 400.773 1147.66 400.773C1145.08 400.773 1142.92 401.424 1141.17 402.727C1139.43 404.029 1138.55 405.604 1138.55 407.453H1131.29C1131.29 405.344 1132.03 403.312 1133.52 401.359C1135.03 399.38 1137.06 397.818 1139.61 396.672C1142.19 395.526 1145.01 394.953 1148.09 394.953C1152.96 394.953 1156.77 396.177 1159.53 398.625C1162.29 401.047 1163.72 404.393 1163.83 408.664V428.117C1163.83 431.997 1164.32 435.083 1165.31 437.375V438H1157.73ZM1145.74 432.492C1148.01 432.492 1150.16 431.906 1152.19 430.734C1154.22 429.562 1155.69 428.039 1156.6 426.164V417.492H1150.94C1142.08 417.492 1137.66 420.083 1137.66 425.266C1137.66 427.531 1138.41 429.302 1139.92 430.578C1141.43 431.854 1143.37 432.492 1145.74 432.492ZM1184.96 385.5V395.734H1192.85V401.32H1184.96V427.531C1184.96 429.224 1185.31 430.5 1186.02 431.359C1186.72 432.193 1187.92 432.609 1189.61 432.609C1190.44 432.609 1191.59 432.453 1193.05 432.141V438C1191.15 438.521 1189.3 438.781 1187.5 438.781C1184.27 438.781 1181.84 437.805 1180.2 435.852C1178.55 433.898 1177.73 431.125 1177.73 427.531V401.32H1170.04V395.734H1177.73V385.5H1184.96ZM1209.18 438H1201.95V395.734H1209.18V438ZM1201.37 384.523C1201.37 383.352 1201.72 382.362 1202.42 381.555C1203.15 380.747 1204.22 380.344 1205.62 380.344C1207.03 380.344 1208.1 380.747 1208.83 381.555C1209.56 382.362 1209.92 383.352 1209.92 384.523C1209.92 385.695 1209.56 386.672 1208.83 387.453C1208.1 388.234 1207.03 388.625 1205.62 388.625C1204.22 388.625 1203.15 388.234 1202.42 387.453C1201.72 386.672 1201.37 385.695 1201.37 384.523ZM1218.87 416.477C1218.87 412.336 1219.67 408.612 1221.29 405.305C1222.93 401.997 1225.2 399.445 1228.09 397.648C1231 395.852 1234.32 394.953 1238.05 394.953C1243.8 394.953 1248.45 396.945 1251.99 400.93C1255.56 404.914 1257.34 410.214 1257.34 416.828V417.336C1257.34 421.451 1256.55 425.148 1254.96 428.43C1253.4 431.685 1251.15 434.224 1248.2 436.047C1245.29 437.87 1241.93 438.781 1238.12 438.781C1232.4 438.781 1227.75 436.789 1224.18 432.805C1220.64 428.82 1218.87 423.547 1218.87 416.984V416.477ZM1226.13 417.336C1226.13 422.023 1227.21 425.786 1229.38 428.625C1231.56 431.464 1234.48 432.883 1238.12 432.883C1241.8 432.883 1244.71 431.451 1246.88 428.586C1249.04 425.695 1250.12 421.659 1250.12 416.477C1250.12 411.841 1249.01 408.091 1246.8 405.227C1244.61 402.336 1241.69 400.891 1238.05 400.891C1234.48 400.891 1231.6 402.31 1229.41 405.148C1227.23 407.987 1226.13 412.049 1226.13 417.336ZM1273.24 395.734L1273.48 401.047C1276.71 396.984 1280.92 394.953 1286.13 394.953C1295.07 394.953 1299.57 399.992 1299.65 410.07V438H1292.42V410.031C1292.4 406.984 1291.69 404.732 1290.31 403.273C1288.96 401.815 1286.84 401.086 1283.95 401.086C1281.6 401.086 1279.54 401.711 1277.77 402.961C1276 404.211 1274.62 405.852 1273.63 407.883V438H1266.41V395.734H1273.24ZM1335.16 426.789C1335.16 424.836 1334.41 423.326 1332.93 422.258C1331.47 421.164 1328.91 420.227 1325.23 419.445C1321.59 418.664 1318.68 417.727 1316.52 416.633C1314.39 415.539 1312.8 414.237 1311.76 412.727C1310.74 411.216 1310.23 409.419 1310.23 407.336C1310.23 403.872 1311.69 400.943 1314.61 398.547C1317.55 396.151 1321.3 394.953 1325.86 394.953C1330.65 394.953 1334.53 396.19 1337.5 398.664C1340.49 401.138 1341.99 404.302 1341.99 408.156H1334.73C1334.73 406.177 1333.88 404.471 1332.19 403.039C1330.52 401.607 1328.41 400.891 1325.86 400.891C1323.23 400.891 1321.17 401.464 1319.69 402.609C1318.2 403.755 1317.46 405.253 1317.46 407.102C1317.46 408.846 1318.15 410.161 1319.53 411.047C1320.91 411.932 1323.4 412.779 1326.99 413.586C1330.61 414.393 1333.54 415.357 1335.78 416.477C1338.02 417.596 1339.67 418.951 1340.74 420.539C1341.84 422.102 1342.38 424.016 1342.38 426.281C1342.38 430.057 1340.87 433.091 1337.85 435.383C1334.83 437.648 1330.91 438.781 1326.09 438.781C1322.71 438.781 1319.71 438.182 1317.11 436.984C1314.51 435.786 1312.46 434.12 1310.98 431.984C1309.52 429.823 1308.79 427.492 1308.79 424.992H1316.02C1316.15 427.414 1317.11 429.341 1318.91 430.773C1320.73 432.18 1323.12 432.883 1326.09 432.883C1328.83 432.883 1331.02 432.336 1332.66 431.242C1334.32 430.122 1335.16 428.638 1335.16 426.789Z" fill="white"/>
<g filter="url(#filter0_d)">
<g clip-path="url(#clip1)">
<rect x="240" y="560" width="1440" height="820" rx="40" fill="#F8F8F8"/>
<rect width="1440" height="1024" transform="translate(240 560)" fill="white"/>
<rect width="1440" height="1024" transform="translate(240 560)" fill="#3F618D"/>
<rect opacity="0.7" x="760" y="772" width="400" height="600" rx="20" fill="white"/>
<rect opacity="0.4" x="760" y="772" width="400" height="162" rx="20" fill="#1877F2"/>
<path d="M1111.65 893.28V868.8C1111.65 865.68 1112.61 863.28 1114.53 861.6C1116.49 859.92 1118.97 859.08 1121.97 859.08H1131.81C1135.25 859.08 1137.77 860 1139.37 861.84C1141.01 863.64 1141.83 865.96 1141.83 868.8V893.28C1141.83 899.76 1138.49 903 1131.81 903H1121.97C1118.97 903 1116.49 902.22 1114.53 900.66C1112.61 899.1 1111.65 896.64 1111.65 893.28ZM1116.09 893.28C1116.09 895.12 1116.65 896.46 1117.77 897.3C1118.93 898.14 1120.33 898.56 1121.97 898.56H1131.81C1135.53 898.56 1137.39 896.8 1137.39 893.28V868.8C1137.39 865.28 1135.53 863.52 1131.81 863.52H1121.97C1119.97 863.52 1118.49 864 1117.53 864.96C1116.57 865.96 1116.09 867.24 1116.09 868.8V893.28Z" fill="#1877F2"/>
<rect x="1058" y="784" width="89" height="30" rx="10" fill="#1877F2"/>
<path d="M1075.58 794.6V803H1074.02V795.908H1072.25V794.6H1075.58ZM1083.33 801.68V803H1077.14V801.956L1080.48 798.788C1080.85 798.428 1081.1 798.116 1081.23 797.852C1081.37 797.58 1081.44 797.312 1081.44 797.048C1081.44 796.656 1081.3 796.356 1081.04 796.148C1080.78 795.94 1080.39 795.836 1079.88 795.836C1079.02 795.836 1078.36 796.128 1077.91 796.712L1076.82 795.872C1077.14 795.432 1077.58 795.092 1078.14 794.852C1078.7 794.604 1079.32 794.48 1080.01 794.48C1080.92 794.48 1081.65 794.696 1082.19 795.128C1082.74 795.56 1083.01 796.148 1083.01 796.892C1083.01 797.348 1082.91 797.776 1082.72 798.176C1082.53 798.576 1082.16 799.032 1081.62 799.544L1079.37 801.68H1083.33ZM1087.42 792.896H1088.77L1084.81 804.2H1083.46L1087.42 792.896ZM1092.07 803.12C1091.4 803.12 1090.8 802.952 1090.27 802.616C1089.75 802.272 1089.33 801.776 1089.03 801.128C1088.72 800.472 1088.57 799.696 1088.57 798.8C1088.57 797.904 1088.72 797.132 1089.03 796.484C1089.33 795.828 1089.75 795.332 1090.27 794.996C1090.8 794.652 1091.4 794.48 1092.07 794.48C1092.75 794.48 1093.35 794.652 1093.87 794.996C1094.41 795.332 1094.83 795.828 1095.13 796.484C1095.44 797.132 1095.59 797.904 1095.59 798.8C1095.59 799.696 1095.44 800.472 1095.13 801.128C1094.83 801.776 1094.41 802.272 1093.87 802.616C1093.35 802.952 1092.75 803.12 1092.07 803.12ZM1092.07 801.764C1092.67 801.764 1093.15 801.516 1093.49 801.02C1093.84 800.524 1094.02 799.784 1094.02 798.8C1094.02 797.816 1093.84 797.076 1093.49 796.58C1093.15 796.084 1092.67 795.836 1092.07 795.836C1091.48 795.836 1091.01 796.084 1090.66 796.58C1090.31 797.076 1090.14 797.816 1090.14 798.8C1090.14 799.784 1090.31 800.524 1090.66 801.02C1091.01 801.516 1091.48 801.764 1092.07 801.764ZM1102.92 794.6V795.644L1099.66 803H1097.99L1101.14 795.92H1097.84V797.348H1096.39V794.6H1102.92ZM1106.48 792.896H1107.82L1103.86 804.2H1102.52L1106.48 792.896ZM1113.94 801.68V803H1107.75V801.956L1111.09 798.788C1111.46 798.428 1111.71 798.116 1111.84 797.852C1111.98 797.58 1112.05 797.312 1112.05 797.048C1112.05 796.656 1111.91 796.356 1111.65 796.148C1111.39 795.94 1111 795.836 1110.49 795.836C1109.63 795.836 1108.97 796.128 1108.52 796.712L1107.43 795.872C1107.75 795.432 1108.19 795.092 1108.75 794.852C1109.31 794.604 1109.93 794.48 1110.62 794.48C1111.53 794.48 1112.26 794.696 1112.8 795.128C1113.35 795.56 1113.62 796.148 1113.62 796.892C1113.62 797.348 1113.52 797.776 1113.33 798.176C1113.14 798.576 1112.77 799.032 1112.23 799.544L1109.98 801.68H1113.94ZM1118.31 803.12C1117.64 803.12 1117.04 802.952 1116.51 802.616C1115.98 802.272 1115.57 801.776 1115.26 801.128C1114.96 800.472 1114.81 799.696 1114.81 798.8C1114.81 797.904 1114.96 797.132 1115.26 796.484C1115.57 795.828 1115.98 795.332 1116.51 794.996C1117.04 794.652 1117.64 794.48 1118.31 794.48C1118.98 794.48 1119.58 794.652 1120.11 794.996C1120.65 795.332 1121.07 795.828 1121.37 796.484C1121.68 797.132 1121.83 797.904 1121.83 798.8C1121.83 799.696 1121.68 800.472 1121.37 801.128C1121.07 801.776 1120.65 802.272 1120.11 802.616C1119.58 802.952 1118.98 803.12 1118.31 803.12ZM1118.31 801.764C1118.91 801.764 1119.38 801.516 1119.73 801.02C1120.08 800.524 1120.26 799.784 1120.26 798.8C1120.26 797.816 1120.08 797.076 1119.73 796.58C1119.38 796.084 1118.91 795.836 1118.31 795.836C1117.72 795.836 1117.25 796.084 1116.9 796.58C1116.55 797.076 1116.38 797.816 1116.38 798.8C1116.38 799.784 1116.55 800.524 1116.9 801.02C1117.25 801.516 1117.72 801.764 1118.31 801.764ZM1128.91 801.68V803H1122.71V801.956L1126.05 798.788C1126.43 798.428 1126.68 798.116 1126.81 797.852C1126.94 797.58 1127.01 797.312 1127.01 797.048C1127.01 796.656 1126.88 796.356 1126.61 796.148C1126.35 795.94 1125.96 795.836 1125.45 795.836C1124.59 795.836 1123.94 796.128 1123.48 796.712L1122.39 795.872C1122.72 795.432 1123.16 795.092 1123.71 794.852C1124.27 794.604 1124.89 794.48 1125.58 794.48C1126.49 794.48 1127.22 794.696 1127.77 795.128C1128.31 795.56 1128.58 796.148 1128.58 796.892C1128.58 797.348 1128.49 797.776 1128.29 798.176C1128.1 798.576 1127.73 799.032 1127.19 799.544L1124.95 801.68H1128.91ZM1132.71 794.6V803H1131.15V795.908H1129.38V794.6H1132.71Z" fill="white"/>
<rect x="772" y="784" width="72" height="30" rx="10" fill="#1877F2"/>
<path d="M788.862 794.6V803H787.302V795.908H785.526V794.6H788.862ZM794.032 803.12C793.36 803.12 792.76 802.952 792.232 802.616C791.704 802.272 791.288 801.776 790.984 801.128C790.68 800.472 790.528 799.696 790.528 798.8C790.528 797.904 790.68 797.132 790.984 796.484C791.288 795.828 791.704 795.332 792.232 794.996C792.76 794.652 793.36 794.48 794.032 794.48C794.704 794.48 795.304 794.652 795.832 794.996C796.368 795.332 796.788 795.828 797.092 796.484C797.396 797.132 797.548 797.904 797.548 798.8C797.548 799.696 797.396 800.472 797.092 801.128C796.788 801.776 796.368 802.272 795.832 802.616C795.304 802.952 794.704 803.12 794.032 803.12ZM794.032 801.764C794.632 801.764 795.104 801.516 795.448 801.02C795.8 800.524 795.976 799.784 795.976 798.8C795.976 797.816 795.8 797.076 795.448 796.58C795.104 796.084 794.632 795.836 794.032 795.836C793.44 795.836 792.968 796.084 792.616 796.58C792.272 797.076 792.1 797.816 792.1 798.8C792.1 799.784 792.272 800.524 792.616 801.02C792.968 801.516 793.44 801.764 794.032 801.764ZM799.538 798.512C799.266 798.512 799.034 798.42 798.842 798.236C798.65 798.044 798.554 797.804 798.554 797.516C798.554 797.22 798.646 796.98 798.83 796.796C799.022 796.612 799.258 796.52 799.538 796.52C799.818 796.52 800.05 796.612 800.234 796.796C800.426 796.98 800.522 797.22 800.522 797.516C800.522 797.804 800.426 798.044 800.234 798.236C800.042 798.42 799.81 798.512 799.538 798.512ZM799.538 803.084C799.266 803.084 799.034 802.992 798.842 802.808C798.65 802.616 798.554 802.376 798.554 802.088C798.554 801.792 798.646 801.552 798.83 801.368C799.022 801.184 799.258 801.092 799.538 801.092C799.818 801.092 800.05 801.184 800.234 801.368C800.426 801.552 800.522 801.792 800.522 802.088C800.522 802.376 800.426 802.616 800.234 802.808C800.042 802.992 799.81 803.084 799.538 803.084ZM804.436 794.6V803H802.876V795.908H801.1V794.6H804.436ZM809.678 798.068C810.454 798.164 811.046 798.428 811.454 798.86C811.862 799.292 812.066 799.832 812.066 800.48C812.066 800.968 811.942 801.412 811.694 801.812C811.446 802.212 811.07 802.532 810.566 802.772C810.07 803.004 809.462 803.12 808.742 803.12C808.142 803.12 807.562 803.036 807.002 802.868C806.45 802.692 805.978 802.452 805.586 802.148L806.258 800.936C806.562 801.192 806.93 801.396 807.362 801.548C807.802 801.692 808.254 801.764 808.718 801.764C809.27 801.764 809.702 801.652 810.014 801.428C810.334 801.196 810.494 800.884 810.494 800.492C810.494 800.1 810.342 799.796 810.038 799.58C809.742 799.356 809.286 799.244 808.67 799.244H807.902V798.176L809.81 795.908H805.994V794.6H811.718V795.644L809.678 798.068ZM814.023 798.512C813.751 798.512 813.519 798.42 813.327 798.236C813.135 798.044 813.039 797.804 813.039 797.516C813.039 797.22 813.131 796.98 813.315 796.796C813.507 796.612 813.743 796.52 814.023 796.52C814.303 796.52 814.535 796.612 814.719 796.796C814.911 796.98 815.007 797.22 815.007 797.516C815.007 797.804 814.911 798.044 814.719 798.236C814.527 798.42 814.295 798.512 814.023 798.512ZM814.023 803.084C813.751 803.084 813.519 802.992 813.327 802.808C813.135 802.616 813.039 802.376 813.039 802.088C813.039 801.792 813.131 801.552 813.315 801.368C813.507 801.184 813.743 801.092 814.023 801.092C814.303 801.092 814.535 801.184 814.719 801.368C814.911 801.552 815.007 801.792 815.007 802.088C815.007 802.376 814.911 802.616 814.719 802.808C814.527 802.992 814.295 803.084 814.023 803.084ZM819.52 803.12C818.848 803.12 818.248 802.952 817.72 802.616C817.192 802.272 816.776 801.776 816.472 801.128C816.168 800.472 816.016 799.696 816.016 798.8C816.016 797.904 816.168 797.132 816.472 796.484C816.776 795.828 817.192 795.332 817.72 794.996C818.248 794.652 818.848 794.48 819.52 794.48C820.192 794.48 820.792 794.652 821.32 794.996C821.856 795.332 822.276 795.828 822.58 796.484C822.884 797.132 823.036 797.904 823.036 798.8C823.036 799.696 822.884 800.472 822.58 801.128C822.276 801.776 821.856 802.272 821.32 802.616C820.792 802.952 820.192 803.12 819.52 803.12ZM819.52 801.764C820.12 801.764 820.592 801.516 820.936 801.02C821.288 800.524 821.464 799.784 821.464 798.8C821.464 797.816 821.288 797.076 820.936 796.58C820.592 796.084 820.12 795.836 819.52 795.836C818.928 795.836 818.456 796.084 818.104 796.58C817.76 797.076 817.588 797.816 817.588 798.8C817.588 799.784 817.76 800.524 818.104 801.02C818.456 801.516 818.928 801.764 819.52 801.764ZM826.719 797.852C827.903 797.852 828.779 798.084 829.347 798.548C829.915 799.004 830.199 799.628 830.199 800.42C830.199 800.924 830.075 801.38 829.827 801.788C829.579 802.196 829.207 802.52 828.711 802.76C828.215 803 827.603 803.12 826.875 803.12C826.275 803.12 825.695 803.036 825.135 802.868C824.575 802.692 824.103 802.452 823.719 802.148L824.379 800.936C824.691 801.192 825.063 801.396 825.495 801.548C825.935 801.692 826.387 801.764 826.851 801.764C827.403 801.764 827.835 801.652 828.147 801.428C828.467 801.196 828.627 800.88 828.627 800.48C828.627 800.048 828.455 799.724 828.111 799.508C827.775 799.284 827.195 799.172 826.371 799.172H824.343L824.775 794.6H829.707V795.908H826.095L825.915 797.852H826.719Z" fill="white"/>
<rect x="805" y="958" width="70" height="70" rx="20" fill="#FF406E"/>
<path d="M834.85 998.75H823.69L821.38 1004H818.29L827.8 983H830.77L840.31 1004H837.16L834.85 998.75ZM833.8 996.35L829.27 986.06L824.74 996.35H833.8ZM852.54 1004.24C850.44 1004.24 848.54 1003.78 846.84 1002.86C845.16 1001.92 843.84 1000.64 842.88 999.02C841.92 997.38 841.44 995.54 841.44 993.5C841.44 991.46 841.92 989.63 842.88 988.01C843.84 986.37 845.17 985.09 846.87 984.17C848.57 983.23 850.47 982.76 852.57 982.76C854.21 982.76 855.71 983.04 857.07 983.6C858.43 984.14 859.59 984.95 860.55 986.03L858.6 987.92C857.02 986.26 855.05 985.43 852.69 985.43C851.13 985.43 849.72 985.78 848.46 986.48C847.2 987.18 846.21 988.15 845.49 989.39C844.79 990.61 844.44 991.98 844.44 993.5C844.44 995.02 844.79 996.4 845.49 997.64C846.21 998.86 847.2 999.82 848.46 1000.52C849.72 1001.22 851.13 1001.57 852.69 1001.57C855.03 1001.57 857 1000.73 858.6 999.05L860.55 1000.94C859.59 1002.02 858.42 1002.84 857.04 1003.4C855.68 1003.96 854.18 1004.24 852.54 1004.24Z" fill="white"/>
<rect x="885" y="958" width="70" height="70" rx="20" fill="#FF8159"/>
<path d="M911.651 1004.24C909.551 1004.24 907.651 1003.78 905.951 1002.86C904.271 1001.92 902.951 1000.64 901.991 999.02C901.031 997.38 900.551 995.54 900.551 993.5C900.551 991.46 901.031 989.63 901.991 988.01C902.951 986.37 904.281 985.09 905.981 984.17C907.681 983.23 909.581 982.76 911.681 982.76C913.321 982.76 914.821 983.04 916.181 983.6C917.541 984.14 918.701 984.95 919.661 986.03L917.711 987.92C916.131 986.26 914.161 985.43 911.801 985.43C910.241 985.43 908.831 985.78 907.571 986.48C906.311 987.18 905.321 988.15 904.601 989.39C903.901 990.61 903.551 991.98 903.551 993.5C903.551 995.02 903.901 996.4 904.601 997.64C905.321 998.86 906.311 999.82 907.571 1000.52C908.831 1001.22 910.241 1001.57 911.801 1001.57C914.141 1001.57 916.111 1000.73 917.711 999.05L919.661 1000.94C918.701 1002.02 917.531 1002.84 916.151 1003.4C914.791 1003.96 913.291 1004.24 911.651 1004.24ZM939.181 1001.39V1004H923.941V983H938.761V985.61H926.941V992.06H937.471V994.61H926.941V1001.39H939.181Z" fill="white"/>
<rect x="965" y="958" width="70" height="70" rx="20" fill="#8257E6"/>
<path d="M993.095 994.31C991.595 994.31 990.385 993.78 989.465 992.72C988.545 991.66 988.085 990.27 988.085 988.55C988.085 986.83 988.545 985.44 989.465 984.38C990.385 983.32 991.595 982.79 993.095 982.79C994.595 982.79 995.805 983.32 996.725 984.38C997.665 985.42 998.135 986.81 998.135 988.55C998.135 990.29 997.665 991.69 996.725 992.75C995.805 993.79 994.595 994.31 993.095 994.31ZM1005.69 983H1008.63L994.295 1004H991.355L1005.69 983ZM993.095 992.21C993.915 992.21 994.545 991.89 994.985 991.25C995.445 990.61 995.675 989.71 995.675 988.55C995.675 987.39 995.445 986.49 994.985 985.85C994.545 985.21 993.915 984.89 993.095 984.89C992.315 984.89 991.685 985.22 991.205 985.88C990.745 986.52 990.515 987.41 990.515 988.55C990.515 989.69 990.745 990.59 991.205 991.25C991.685 991.89 992.315 992.21 993.095 992.21ZM1006.86 1004.21C1005.36 1004.21 1004.15 1003.68 1003.23 1002.62C1002.31 1001.56 1001.85 1000.17 1001.85 998.45C1001.85 996.73 1002.31 995.34 1003.23 994.28C1004.15 993.22 1005.36 992.69 1006.86 992.69C1008.36 992.69 1009.57 993.22 1010.49 994.28C1011.43 995.34 1011.9 996.73 1011.9 998.45C1011.9 1000.17 1011.43 1001.56 1010.49 1002.62C1009.57 1003.68 1008.36 1004.21 1006.86 1004.21ZM1006.86 1002.11C1007.66 1002.11 1008.29 1001.79 1008.75 1001.15C1009.21 1000.49 1009.44 999.59 1009.44 998.45C1009.44 997.31 1009.21 996.42 1008.75 995.78C1008.29 995.12 1007.66 994.79 1006.86 994.79C1006.06 994.79 1005.43 995.11 1004.97 995.75C1004.51 996.39 1004.28 997.29 1004.28 998.45C1004.28 999.61 1004.51 1000.51 1004.97 1001.15C1005.43 1001.79 1006.06 1002.11 1006.86 1002.11Z" fill="white"/>
<rect x="1045" y="958" width="70" height="70" rx="20" fill="#8257E6"/>
<path d="M1083.43 978.74H1086.79L1076.89 1007H1073.53L1083.43 978.74Z" fill="white"/>
<rect x="1045" y="1038" width="70" height="70" rx="20" fill="#8257E6"/>
<path d="M1084.06 1081L1079.95 1075.45L1075.81 1081H1071.67L1077.91 1072.87L1071.94 1064.98H1076.11L1080.04 1070.23L1083.97 1064.98H1088.02L1082.02 1072.81L1088.29 1081H1084.06Z" fill="white"/>
<rect x="1045" y="1118" width="70" height="70" rx="20" fill="#8257E6"/>
<path d="M1073 1153H1088V1156.12H1073V1153Z" fill="white"/>
<rect x="1045" y="1198" width="70" height="150" rx="20" fill="#8257E6"/>
<path d="M1086.93 1275H1081.62V1280.25H1078.41V1275H1073.1V1272H1078.41V1266.75H1081.62V1272H1086.93V1275Z" fill="white"/>
<rect x="805" y="1038" width="70" height="70" rx="20" fill="#1877F2"/>
<path d="M847.775 1063V1065.04L839.285 1084H836.105L844.415 1065.61H834.815V1069.36H831.935V1063H847.775Z" fill="white"/>
<rect x="885" y="1038" width="70" height="70" rx="20" fill="#1877F2"/>
<path d="M924.627 1072.99C925.827 1073.45 926.747 1074.11 927.387 1074.97C928.027 1075.83 928.347 1076.86 928.347 1078.06C928.347 1079.32 928.007 1080.42 927.327 1081.36C926.647 1082.28 925.677 1082.99 924.417 1083.49C923.157 1083.99 921.677 1084.24 919.977 1084.24C918.297 1084.24 916.827 1083.99 915.567 1083.49C914.327 1082.99 913.367 1082.28 912.687 1081.36C912.007 1080.42 911.667 1079.32 911.667 1078.06C911.667 1076.86 911.977 1075.83 912.597 1074.97C913.237 1074.11 914.157 1073.45 915.357 1072.99C914.397 1072.53 913.667 1071.92 913.167 1071.16C912.667 1070.4 912.417 1069.5 912.417 1068.46C912.417 1067.3 912.727 1066.29 913.347 1065.43C913.987 1064.57 914.877 1063.91 916.017 1063.45C917.157 1062.99 918.477 1062.76 919.977 1062.76C921.497 1062.76 922.827 1062.99 923.967 1063.45C925.127 1063.91 926.017 1064.57 926.637 1065.43C927.277 1066.29 927.597 1067.3 927.597 1068.46C927.597 1069.48 927.337 1070.38 926.817 1071.16C926.317 1071.92 925.587 1072.53 924.627 1072.99ZM919.977 1065.19C918.557 1065.19 917.437 1065.5 916.617 1066.12C915.797 1066.72 915.387 1067.54 915.387 1068.58C915.387 1069.62 915.787 1070.44 916.587 1071.04C917.407 1071.64 918.537 1071.94 919.977 1071.94C921.437 1071.94 922.577 1071.64 923.397 1071.04C924.237 1070.44 924.657 1069.62 924.657 1068.58C924.657 1067.54 924.227 1066.72 923.367 1066.12C922.527 1065.5 921.397 1065.19 919.977 1065.19ZM919.977 1081.81C921.637 1081.81 922.947 1081.47 923.907 1080.79C924.867 1080.09 925.347 1079.15 925.347 1077.97C925.347 1076.81 924.867 1075.9 923.907 1075.24C922.947 1074.56 921.637 1074.22 919.977 1074.22C918.317 1074.22 917.017 1074.56 916.077 1075.24C915.137 1075.9 914.667 1076.81 914.667 1077.97C914.667 1079.15 915.137 1080.09 916.077 1080.79C917.017 1081.47 918.317 1081.81 919.977 1081.81Z" fill="white"/>
<rect x="965" y="1038" width="70" height="70" rx="20" fill="#1877F2"/>
<path d="M999.492 1062.76C1002.31 1062.76 1004.48 1063.67 1006 1065.49C1007.54 1067.31 1008.31 1069.89 1008.31 1073.23C1008.31 1075.57 1007.89 1077.57 1007.05 1079.23C1006.23 1080.87 1005.07 1082.12 1003.57 1082.98C1002.09 1083.82 1000.36 1084.24 998.382 1084.24C997.362 1084.24 996.402 1084.14 995.502 1083.94C994.602 1083.72 993.822 1083.41 993.162 1083.01L994.302 1080.67C995.322 1081.33 996.672 1081.66 998.352 1081.66C1000.53 1081.66 1002.23 1080.99 1003.45 1079.65C1004.69 1078.29 1005.31 1076.32 1005.31 1073.74V1072.99C1004.71 1073.89 1003.88 1074.58 1002.82 1075.06C1001.76 1075.52 1000.57 1075.75 999.252 1075.75C997.872 1075.75 996.632 1075.49 995.532 1074.97C994.452 1074.45 993.602 1073.71 992.982 1072.75C992.382 1071.77 992.082 1070.65 992.082 1069.39C992.082 1068.07 992.402 1066.91 993.042 1065.91C993.702 1064.91 994.592 1064.14 995.712 1063.6C996.832 1063.04 998.092 1062.76 999.492 1062.76ZM999.762 1073.32C1000.7 1073.32 1001.54 1073.14 1002.28 1072.78C1003.02 1072.42 1003.59 1071.93 1003.99 1071.31C1004.41 1070.69 1004.62 1070 1004.62 1069.24C1004.62 1068.5 1004.42 1067.83 1004.02 1067.23C1003.64 1066.61 1003.07 1066.12 1002.31 1065.76C1001.57 1065.38 1000.67 1065.19 999.612 1065.19C998.232 1065.19 997.112 1065.56 996.252 1066.3C995.412 1067.04 994.992 1068.03 994.992 1069.27C994.992 1070.51 995.422 1071.5 996.282 1072.24C997.142 1072.96 998.302 1073.32 999.762 1073.32Z" fill="white"/>
<rect x="805" y="1118" width="70" height="70" rx="20" fill="#1877F2"/>
<path d="M850.176 1158.84H846.186V1164H843.276V1158.84H831.606V1156.74L842.346 1143H845.586L835.296 1156.26H843.366V1151.7H846.186V1156.26H850.176V1158.84Z" fill="white"/>
<rect x="885" y="1118" width="70" height="70" rx="20" fill="#1877F2"/>
<path d="M918.827 1151.37C921.827 1151.37 924.027 1151.94 925.427 1153.08C926.847 1154.2 927.557 1155.74 927.557 1157.7C927.557 1158.94 927.257 1160.06 926.657 1161.06C926.077 1162.04 925.187 1162.82 923.987 1163.4C922.807 1163.96 921.347 1164.24 919.607 1164.24C918.127 1164.24 916.697 1164.02 915.317 1163.58C913.937 1163.12 912.797 1162.49 911.897 1161.69L913.277 1159.32C913.997 1160 914.917 1160.55 916.037 1160.97C917.157 1161.37 918.337 1161.57 919.577 1161.57C921.157 1161.57 922.377 1161.24 923.237 1160.58C924.117 1159.9 924.557 1158.98 924.557 1157.82C924.557 1156.56 924.077 1155.61 923.117 1154.97C922.157 1154.31 920.517 1153.98 918.197 1153.98H913.427L914.537 1143H926.387V1145.61H917.057L916.487 1151.37H918.827Z" fill="white"/>
<rect x="965" y="1118" width="70" height="70" rx="20" fill="#1877F2"/>
<path d="M1001.74 1151.25C1003.12 1151.25 1004.35 1151.51 1005.43 1152.03C1006.53 1152.55 1007.39 1153.3 1008.01 1154.28C1008.63 1155.24 1008.94 1156.35 1008.94 1157.61C1008.94 1158.93 1008.61 1160.09 1007.95 1161.09C1007.31 1162.09 1006.42 1162.87 1005.28 1163.43C1004.16 1163.97 1002.9 1164.24 1001.5 1164.24C998.682 1164.24 996.502 1163.33 994.962 1161.51C993.442 1159.69 992.682 1157.11 992.682 1153.77C992.682 1151.43 993.092 1149.44 993.912 1147.8C994.752 1146.14 995.912 1144.89 997.392 1144.05C998.892 1143.19 1000.63 1142.76 1002.61 1142.76C1003.63 1142.76 1004.59 1142.87 1005.49 1143.09C1006.39 1143.29 1007.17 1143.59 1007.83 1143.99L1006.69 1146.33C1005.69 1145.67 1004.35 1145.34 1002.67 1145.34C1000.49 1145.34 998.782 1146.02 997.542 1147.38C996.302 1148.72 995.682 1150.68 995.682 1153.26C995.682 1153.58 995.692 1153.83 995.712 1154.01C996.312 1153.11 997.132 1152.43 998.172 1151.97C999.232 1151.49 1000.42 1151.25 1001.74 1151.25ZM1001.38 1161.81C1002.76 1161.81 1003.88 1161.44 1004.74 1160.7C1005.6 1159.96 1006.03 1158.97 1006.03 1157.73C1006.03 1156.49 1005.59 1155.51 1004.71 1154.79C1003.85 1154.05 1002.69 1153.68 1001.23 1153.68C1000.29 1153.68 999.452 1153.86 998.712 1154.22C997.992 1154.58 997.422 1155.07 997.002 1155.69C996.602 1156.31 996.402 1157 996.402 1157.76C996.402 1158.5 996.592 1159.18 996.972 1159.8C997.372 1160.4 997.942 1160.89 998.682 1161.27C999.442 1161.63 1000.34 1161.81 1001.38 1161.81Z" fill="white"/>
<rect x="805" y="1198" width="70" height="70" rx="20" fill="#1877F2"/>
<path d="M842.398 1223V1244H839.428V1225.61H834.688V1223H842.398Z" fill="white"/>
<rect x="885" y="1198" width="70" height="70" rx="20" fill="#1877F2"/>
<path d="M927.587 1241.39V1244H912.497V1241.96L921.047 1233.71C922.087 1232.71 922.787 1231.85 923.147 1231.13C923.507 1230.39 923.687 1229.65 923.687 1228.91C923.687 1227.81 923.297 1226.96 922.517 1226.36C921.757 1225.74 920.657 1225.43 919.217 1225.43C916.897 1225.43 915.107 1226.19 913.847 1227.71L911.807 1225.94C912.627 1224.94 913.697 1224.16 915.017 1223.6C916.357 1223.04 917.847 1222.76 919.487 1222.76C921.687 1222.76 923.437 1223.29 924.737 1224.35C926.037 1225.39 926.687 1226.81 926.687 1228.61C926.687 1229.73 926.447 1230.79 925.967 1231.79C925.487 1232.79 924.577 1233.93 923.237 1235.21L916.817 1241.39H927.587Z" fill="white"/>
<rect x="965" y="1198" width="70" height="70" rx="20" fill="#1877F2"/>
<path d="M1000.9 1231.82C1002.96 1232.02 1004.53 1232.66 1005.61 1233.74C1006.69 1234.8 1007.23 1236.16 1007.23 1237.82C1007.23 1239.02 1006.93 1240.11 1006.33 1241.09C1005.73 1242.05 1004.83 1242.82 1003.63 1243.4C1002.45 1243.96 1001 1244.24 999.276 1244.24C997.776 1244.24 996.336 1244.02 994.956 1243.58C993.576 1243.12 992.446 1242.49 991.566 1241.69L992.946 1239.32C993.666 1240 994.586 1240.55 995.706 1240.97C996.826 1241.37 998.016 1241.57 999.276 1241.57C1000.84 1241.57 1002.05 1241.24 1002.91 1240.58C1003.79 1239.92 1004.23 1239.01 1004.23 1237.85C1004.23 1236.69 1003.8 1235.79 1002.94 1235.15C1002.08 1234.51 1000.78 1234.19 999.036 1234.19H997.356V1232.09L1002.64 1225.61H992.526V1223H1006.39V1225.04L1000.9 1231.82Z" fill="white"/>
<rect x="805" y="1278" width="70" height="70" rx="20" fill="#1877F2"/>
<path d="M840.515 1324.24C838.855 1324.24 837.375 1323.82 836.075 1322.98C834.795 1322.12 833.785 1320.88 833.045 1319.26C832.305 1317.64 831.935 1315.72 831.935 1313.5C831.935 1311.28 832.305 1309.36 833.045 1307.74C833.785 1306.12 834.795 1304.89 836.075 1304.05C837.375 1303.19 838.855 1302.76 840.515 1302.76C842.155 1302.76 843.615 1303.19 844.895 1304.05C846.195 1304.89 847.215 1306.12 847.955 1307.74C848.695 1309.36 849.065 1311.28 849.065 1313.5C849.065 1315.72 848.695 1317.64 847.955 1319.26C847.215 1320.88 846.195 1322.12 844.895 1322.98C843.615 1323.82 842.155 1324.24 840.515 1324.24ZM840.515 1321.57C842.195 1321.57 843.535 1320.88 844.535 1319.5C845.555 1318.12 846.065 1316.12 846.065 1313.5C846.065 1310.88 845.555 1308.88 844.535 1307.5C843.535 1306.12 842.195 1305.43 840.515 1305.43C838.815 1305.43 837.455 1306.12 836.435 1307.5C835.435 1308.88 834.935 1310.88 834.935 1313.5C834.935 1316.12 835.435 1318.12 836.435 1319.5C837.455 1320.88 838.815 1321.57 840.515 1321.57Z" fill="white"/>
<rect x="885" y="1278" width="70" height="70" rx="20" fill="#8257E6"/>
<path d="M920.522 1324.18C919.962 1324.18 919.482 1323.99 919.082 1323.61C918.682 1323.21 918.482 1322.71 918.482 1322.11C918.482 1321.53 918.682 1321.05 919.082 1320.67C919.482 1320.27 919.962 1320.07 920.522 1320.07C921.082 1320.07 921.552 1320.26 921.932 1320.64C922.312 1321.02 922.502 1321.51 922.502 1322.11C922.502 1322.71 922.302 1323.21 921.902 1323.61C921.522 1323.99 921.062 1324.18 920.522 1324.18Z" fill="white"/>
<rect x="965" y="1278" width="70" height="70" rx="20" fill="#27A565"/>
<path d="M993.28 1308.76H1006.72V1311.13H993.28V1308.76ZM993.28 1315.87H1006.72V1318.24H993.28V1315.87Z" fill="white"/>
<rect opacity="0.7" x="1513" y="620" width="70" height="50" rx="20" fill="#FF406E"/>
<path d="M1541.98 652.025C1540.24 651.624 1539.07 651.939 1537.62 650.721C1536 649.346 1535.99 647.04 1536 645.077C1535.99 643.114 1536 640.808 1537.62 639.433C1539.24 638.057 1540.53 638.616 1542.63 637.928C1544.73 637.241 1547.66 632.972 1550.92 634.891C1552.23 635.823 1553.01 637.341 1553.32 640.679" stroke="white" stroke-width="1.5" stroke-linecap="round" stroke-linejoin="round"/>
<path d="M1553.47 647.412C1553.28 652.225 1552.45 654.159 1550.92 655.248C1549.25 656.236 1547.66 655.592 1546.25 654.632" stroke="white" stroke-width="1.5" stroke-linecap="round" stroke-linejoin="round"/>
<path d="M1561 633L1536.43 657.568" stroke="white" stroke-width="1.5" stroke-linecap="round" stroke-linejoin="round"/>
</g>
</g>
<path d="M1465.46 275V232.344H1477.5C1481.21 232.344 1484.49 233.164 1487.34 234.805C1490.2 236.445 1492.39 238.779 1493.94 241.807C1495.5 244.834 1496.29 248.311 1496.31 252.236V254.961C1496.31 258.984 1495.53 262.51 1493.96 265.537C1492.42 268.564 1490.21 270.889 1487.31 272.51C1484.44 274.131 1481.09 274.961 1477.27 275H1465.46ZM1471.08 236.973V270.4H1477C1481.34 270.4 1484.71 269.053 1487.11 266.357C1489.53 263.662 1490.74 259.824 1490.74 254.844V252.354C1490.74 247.51 1489.6 243.75 1487.31 241.074C1485.05 238.379 1481.83 237.012 1477.65 236.973H1471.08ZM1517.14 275.586C1512.84 275.586 1509.35 274.18 1506.65 271.367C1503.96 268.535 1502.61 264.756 1502.61 260.029V259.033C1502.61 255.889 1503.2 253.086 1504.39 250.625C1505.61 248.145 1507.29 246.211 1509.43 244.824C1511.6 243.418 1513.95 242.715 1516.46 242.715C1520.59 242.715 1523.79 244.072 1526.07 246.787C1528.36 249.502 1529.5 253.389 1529.5 258.447V260.703H1508.03C1508.11 263.828 1509.01 266.357 1510.75 268.291C1512.51 270.205 1514.74 271.162 1517.43 271.162C1519.35 271.162 1520.97 270.771 1522.29 269.99C1523.62 269.209 1524.79 268.174 1525.78 266.885L1529.09 269.463C1526.44 273.545 1522.45 275.586 1517.14 275.586ZM1516.46 247.168C1514.28 247.168 1512.44 247.969 1510.96 249.57C1509.47 251.152 1508.55 253.379 1508.2 256.25H1524.08V255.84C1523.93 253.086 1523.18 250.957 1521.86 249.453C1520.53 247.93 1518.73 247.168 1516.46 247.168ZM1554.26 266.592C1554.26 265.127 1553.7 263.994 1552.59 263.193C1551.49 262.373 1549.57 261.67 1546.82 261.084C1544.08 260.498 1541.9 259.795 1540.28 258.975C1538.68 258.154 1537.49 257.178 1536.71 256.045C1535.95 254.912 1535.57 253.564 1535.57 252.002C1535.57 249.404 1536.66 247.207 1538.85 245.41C1541.05 243.613 1543.87 242.715 1547.29 242.715C1550.88 242.715 1553.79 243.643 1556.02 245.498C1558.26 247.354 1559.38 249.727 1559.38 252.617H1553.94C1553.94 251.133 1553.3 249.854 1552.03 248.779C1550.78 247.705 1549.2 247.168 1547.29 247.168C1545.31 247.168 1543.77 247.598 1542.66 248.457C1541.54 249.316 1540.99 250.439 1540.99 251.826C1540.99 253.135 1541.5 254.121 1542.54 254.785C1543.57 255.449 1545.44 256.084 1548.13 256.689C1550.85 257.295 1553.05 258.018 1554.73 258.857C1556.41 259.697 1557.65 260.713 1558.45 261.904C1559.27 263.076 1559.68 264.512 1559.68 266.211C1559.68 269.043 1558.54 271.318 1556.28 273.037C1554.01 274.736 1551.07 275.586 1547.46 275.586C1544.92 275.586 1542.68 275.137 1540.72 274.238C1538.77 273.34 1537.24 272.09 1536.12 270.488C1535.03 268.867 1534.48 267.119 1534.48 265.244H1539.9C1540 267.061 1540.72 268.506 1542.07 269.58C1543.44 270.635 1545.23 271.162 1547.46 271.162C1549.51 271.162 1551.15 270.752 1552.38 269.932C1553.63 269.092 1554.26 267.979 1554.26 266.592ZM1575.59 260.322L1572.19 263.867V275H1566.77V230H1572.19V257.217L1575.09 253.73L1584.96 243.301H1591.55L1579.22 256.543L1592.99 275H1586.63L1575.59 260.322ZM1604.5 235.625V243.301H1610.42V247.49H1604.5V267.148C1604.5 268.418 1604.77 269.375 1605.29 270.02C1605.82 270.645 1606.72 270.957 1607.99 270.957C1608.61 270.957 1609.47 270.84 1610.57 270.605V275C1609.14 275.391 1607.75 275.586 1606.41 275.586C1603.98 275.586 1602.16 274.854 1600.93 273.389C1599.7 271.924 1599.08 269.844 1599.08 267.148V247.49H1593.31V243.301H1599.08V235.625H1604.5ZM1614.76 258.857C1614.76 255.752 1615.36 252.959 1616.57 250.479C1617.8 247.998 1619.5 246.084 1621.67 244.736C1623.86 243.389 1626.35 242.715 1629.14 242.715C1633.46 242.715 1636.94 244.209 1639.6 247.197C1642.28 250.186 1643.61 254.16 1643.61 259.121V259.502C1643.61 262.588 1643.02 265.361 1641.83 267.822C1640.65 270.264 1638.96 272.168 1636.76 273.535C1634.57 274.902 1632.05 275.586 1629.2 275.586C1624.9 275.586 1621.42 274.092 1618.74 271.104C1616.08 268.115 1614.76 264.16 1614.76 259.238V258.857ZM1620.21 259.502C1620.21 263.018 1621.02 265.84 1622.64 267.969C1624.28 270.098 1626.46 271.162 1629.2 271.162C1631.95 271.162 1634.14 270.088 1635.76 267.939C1637.38 265.771 1638.19 262.744 1638.19 258.857C1638.19 255.381 1637.36 252.568 1635.7 250.42C1634.06 248.252 1631.88 247.168 1629.14 247.168C1626.46 247.168 1624.31 248.232 1622.67 250.361C1621.03 252.49 1620.21 255.537 1620.21 259.502ZM1677.19 259.502C1677.19 264.326 1676.08 268.213 1673.88 271.162C1671.67 274.111 1668.68 275.586 1664.91 275.586C1661.06 275.586 1658.04 274.365 1655.83 271.924V287.188H1650.41V243.301H1655.36L1655.62 246.816C1657.83 244.082 1660.9 242.715 1664.82 242.715C1668.63 242.715 1671.64 244.15 1673.85 247.021C1676.07 249.893 1677.19 253.887 1677.19 259.004V259.502ZM1671.77 258.887C1671.77 255.312 1671.01 252.49 1669.48 250.42C1667.96 248.35 1665.87 247.314 1663.21 247.314C1659.93 247.314 1657.47 248.77 1655.83 251.68V266.826C1657.45 269.717 1659.93 271.162 1663.27 271.162C1665.87 271.162 1667.93 270.137 1669.45 268.086C1671 266.016 1671.77 262.949 1671.77 258.887Z" fill="white"/>
</g>
<defs>
<filter id="filter0_d" x="212" y="552" width="1504" height="884" filterUnits="userSpaceOnUse" color-interpolation-filters="sRGB">
<feFlood flood-opacity="0" result="BackgroundImageFix"/>
<feColorMatrix in="SourceAlpha" type="matrix" values="0 0 0 0 0 0 0 0 0 0 0 0 0 0 0 0 0 0 127 0"/>
<feOffset dx="4" dy="24"/>
<feGaussianBlur stdDeviation="16"/>
<feColorMatrix type="matrix" values="0 0 0 0 0.247059 0 0 0 0 0.380392 0 0 0 0 0.552941 0 0 0 1 0"/>
<feBlend mode="normal" in2="BackgroundImageFix" result="effect1_dropShadow"/>
<feBlend mode="normal" in="SourceGraphic" in2="effect1_dropShadow" result="shape"/>
</filter>
<clipPath id="clip0">
<rect width="1920" height="1348" fill="white"/>
</clipPath>
<clipPath id="clip1">
<rect x="240" y="560" width="1440" height="820" rx="40" fill="white"/>
</clipPath>
</defs>
</svg>
