<svg width="16" height="16" viewBox="0 0 16 16" fill="none" xmlns="http://www.w3.org/2000/svg">
<mask id="mask0" mask-type="alpha" maskUnits="userSpaceOnUse" x="0" y="0" width="16" height="16">
<rect width="16" height="16" rx="4" fill="#395185"/>
</mask>
<g mask="url(#mask0)">
<path d="M15.1169 16.0001C15.6046 16.0001 16 15.6047 16 15.117V0.883062C16 0.395312 15.6046 0 15.1169 0H0.88307C0.395258 0 7.62939e-06 0.395312 7.62939e-06 0.883062V15.117C7.62939e-06 15.6047 0.395258 16.0001 0.88307 16.0001H15.1169Z" fill="#395185"/>
<path d="M10.0397 18.0001V11.804H12.1195L12.4309 9.38931H10.0397V7.84756C10.0397 7.14844 10.2339 6.672 11.2364 6.672L12.5151 6.67144V4.51175C12.2939 4.48231 11.5349 4.41656 10.6519 4.41656C8.80826 4.41656 7.54613 5.54188 7.54613 7.6085V9.38931H5.46101V11.804H7.54613V18.0001H10.0397Z" fill="white"/>
</g>
</svg>
