<svg width="17" height="17" viewBox="0 0 17 17" fill="none" xmlns="http://www.w3.org/2000/svg">
<rect x="0.899994" y="0.899994" width="16" height="16" rx="4" fill="black"/>
<rect x="3" y="3" width="12" height="13" fill="white"/>
<path d="M15.66 2.32425C15.1102 1.7745 14.4487 1.5 13.6747 1.5H4.30949C3.53549 1.5 2.87399 1.7745 2.32424 2.32425C1.77449 2.874 1.49999 3.5355 1.49999 4.3095V13.6748C1.49999 14.4488 1.77449 15.1103 2.32424 15.66C2.87399 16.2098 3.53549 16.4843 4.30949 16.4843H6.49499C6.63749 16.4843 6.74474 16.479 6.81674 16.4693C6.90051 16.4525 6.97612 16.4078 7.03124 16.3425C7.10249 16.2675 7.13849 16.1588 7.13849 16.0163L7.13324 15.3525C7.13024 14.9295 7.12874 14.595 7.12874 14.3475L6.90374 14.3865C6.76124 14.4128 6.58124 14.424 6.36299 14.421C6.13551 14.4168 5.90875 14.394 5.68499 14.3528C5.44679 14.3088 5.22256 14.2085 5.03099 14.0603C4.83036 13.9085 4.68072 13.6992 4.60199 13.4603L4.50449 13.2353C4.42231 13.0578 4.31907 12.8908 4.19699 12.738C4.05749 12.5557 3.91574 12.4328 3.77249 12.3675L3.70499 12.3188C3.65792 12.285 3.61511 12.2458 3.57749 12.2017C3.54156 12.1609 3.51198 12.1149 3.48974 12.0653C3.47024 12.0195 3.48674 11.982 3.53849 11.9528C3.59099 11.9228 3.68474 11.9085 3.82199 11.9085L4.01699 11.9385C4.14674 11.964 4.30799 12.042 4.49924 12.1718C4.69279 12.3037 4.85446 12.4772 4.97249 12.6795C5.12249 12.9458 5.30249 13.149 5.51399 13.2893C5.72549 13.4288 5.93849 13.4993 6.15299 13.4993C6.36749 13.4993 6.55274 13.4828 6.70949 13.4505C6.86108 13.4192 7.00837 13.3698 7.14824 13.3035C7.20674 12.8685 7.36574 12.5325 7.62599 12.2985C7.28877 12.2654 6.95456 12.2068 6.62624 12.123C6.30584 12.035 5.9977 11.9072 5.70899 11.7428C5.40693 11.5783 5.14012 11.3561 4.92374 11.0888C4.71599 10.8285 4.54499 10.4873 4.41149 10.065C4.27874 9.642 4.21199 9.15375 4.21199 8.601C4.21199 7.81425 4.46849 7.1445 4.98224 6.591C4.74224 6 4.76474 5.33625 5.05049 4.602C5.23949 4.54275 5.51924 4.587 5.88974 4.73325C6.26024 4.8795 6.53174 5.00475 6.70424 5.10825C6.87674 5.21325 7.01474 5.301 7.11899 5.37225C7.72872 5.20257 8.35884 5.11727 8.99174 5.11875C9.63599 5.11875 10.26 5.2035 10.8652 5.37225L11.2357 5.13825C11.5207 4.96714 11.8213 4.82349 12.1335 4.70925C12.4785 4.57875 12.741 4.5435 12.924 4.602C13.2165 5.337 13.242 6 13.0012 6.59175C13.515 7.1445 13.7722 7.81425 13.7722 8.60175C13.7722 9.1545 13.7055 9.64425 13.572 10.0695C13.4392 10.4955 13.2667 10.8368 13.0552 11.094C12.8351 11.3579 12.5671 11.578 12.2655 11.7428C11.9505 11.9183 11.6445 12.045 11.3482 12.123C11.0199 12.207 10.6857 12.266 10.3485 12.2993C10.686 12.5918 10.8555 13.053 10.8555 13.6838V16.0163C10.8555 16.1265 10.8712 16.2158 10.9042 16.284C10.9194 16.3169 10.941 16.3464 10.9678 16.3707C10.9946 16.3951 11.0261 16.4138 11.0602 16.4258C11.1322 16.4513 11.1952 16.4678 11.2507 16.4738C11.3062 16.4813 11.3857 16.4835 11.4892 16.4835H13.6747C14.4487 16.4835 15.1102 16.209 15.66 15.6593C16.209 15.1103 16.4842 14.448 16.4842 13.674V4.3095C16.4842 3.5355 16.209 2.874 15.6592 2.32425H15.66Z" fill="black"/>
</svg>
