<svg width="16" height="16" viewBox="0 0 16 16" fill="none" xmlns="http://www.w3.org/2000/svg">
<mask id="mask0" mask-type="alpha" maskUnits="userSpaceOnUse" x="0" y="0" width="16" height="16">
<rect width="16" height="16" rx="4" fill="#626060"/>
</mask>
<g mask="url(#mask0)">
<path d="M16.6918 2.21954C16.528 0.684479 15.3157 -0.528137 13.7805 -0.691833C9.93057 -1.10272 6.06943 -1.10272 2.21968 -0.691833C0.684479 -0.528 -0.528 0.684479 -0.691833 2.21954C-1.10272 6.06929 -1.10272 9.93057 -0.691833 13.7803C-0.528 15.3155 0.684479 16.528 2.21954 16.6918C6.06929 17.1027 9.93057 17.1027 13.7805 16.6918C15.3157 16.528 16.528 15.3155 16.6918 13.7803C17.1027 9.93057 17.1027 6.06943 16.6918 2.21954V2.21954Z" fill="url(#paint0_radial)"/>
<path d="M2.92976 6.04334C2.96337 5.80603 2.98897 5.56737 3.03168 5.33179C3.27379 3.99743 4.21846 3.08955 5.56919 3.04303C7.19551 2.98715 8.82675 2.98419 10.4528 3.04278C11.9229 3.09571 12.9876 4.18427 13.0335 5.65488C13.0824 7.21646 13.0824 8.78185 13.0335 10.3434C12.9876 11.814 11.9233 12.9025 10.4529 12.9555C8.82688 13.0142 7.19526 13.0157 5.56932 12.9547C4.09895 12.8994 3.08251 11.8084 2.98417 10.3355C2.97567 10.2082 2.94835 10.0819 2.92976 9.95509C2.92976 8.65114 2.92976 7.34718 2.92976 6.04334V6.04334ZM8.00135 12.084C8.74552 12.084 9.49043 12.1062 10.2336 12.0788C11.3989 12.0356 12.1156 11.3402 12.1428 10.176C12.1765 8.72548 12.1765 7.27296 12.1428 5.82228C12.1156 4.65839 11.3984 3.94671 10.2336 3.92197C8.75524 3.89071 7.27527 3.89096 5.7969 3.92197C4.64101 3.94622 3.9222 4.6435 3.89081 5.79459C3.85093 7.26348 3.85093 8.73496 3.89081 10.2038C3.9222 11.3548 4.64101 12.036 5.79702 12.0788C6.53085 12.1061 7.26653 12.084 8.00135 12.084V12.084Z" fill="white"/>
<path d="M8 5.41608C6.57295 5.41608 5.41595 6.57295 5.41595 7.99999C5.41595 9.42716 6.57295 10.584 8 10.584C9.42716 10.584 10.584 9.42716 10.584 7.99999C10.584 6.57295 9.42716 5.41608 8 5.41608ZM8 9.69438C7.06418 9.69438 6.30561 8.93581 6.30561 7.99999C6.30561 7.06418 7.06418 6.30561 8 6.30561C8.93581 6.30561 9.69438 7.06418 9.69438 7.99999C9.69438 8.93581 8.93581 9.69438 8 9.69438Z" fill="white"/>
<path d="M11.3496 5.29816C11.3496 5.63763 11.0744 5.91284 10.7349 5.91284C10.3955 5.91284 10.1201 5.63763 10.1201 5.29816C10.1201 4.95857 10.3955 4.68335 10.7349 4.68335C11.0744 4.68335 11.3496 4.95857 11.3496 5.29816Z" fill="white"/>
</g>
<defs>
<radialGradient id="paint0_radial" cx="0" cy="0" r="1" gradientUnits="userSpaceOnUse" gradientTransform="translate(2.6899 14.7306) scale(19.8508)">
<stop stop-color="#FAE100"/>
<stop offset="0.0544" stop-color="#FADC04"/>
<stop offset="0.1167" stop-color="#FBCE0E"/>
<stop offset="0.1829" stop-color="#FCB720"/>
<stop offset="0.2514" stop-color="#FE9838"/>
<stop offset="0.3054" stop-color="#FF7950"/>
<stop offset="0.4922" stop-color="#FF1C74"/>
<stop offset="1" stop-color="#6C1CD1"/>
</radialGradient>
</defs>
</svg>
