<svg width="16" height="16" viewBox="0 0 16 16" fill="none" xmlns="http://www.w3.org/2000/svg">
<mask id="mask0" mask-type="alpha" maskUnits="userSpaceOnUse" x="0" y="0" width="16" height="16">
<rect width="16" height="16" rx="5" fill="white"/>
</mask>
<g mask="url(#mask0)">
<rect x="-1" y="-1" width="18" height="17" fill="white"/>
<path d="M13.0965 0H2.90348C2.28178 0 0 2.28178 0 2.90348L0 13.0965C0 13.7182 2.28178 16 2.90348 16H13.0965C13.7182 16 16 13.7182 16 13.0965V2.90348C16 2.28178 13.7182 0 13.0965 0ZM5.62862 12.5231C5.62862 12.7041 5.48195 12.8507 5.30102 12.8507H3.90653C3.72559 12.8507 3.57893 12.7041 3.57893 12.5231V6.67747C3.57893 6.49654 3.72559 6.34987 3.90653 6.34987H5.30102C5.48195 6.34987 5.62862 6.49654 5.62862 6.67747V12.5231ZM4.60377 5.79883C3.87213 5.79883 3.279 5.2057 3.279 4.47405C3.279 3.7424 3.87213 3.14927 4.60377 3.14927C5.33542 3.14927 5.92855 3.7424 5.92855 4.47405C5.92855 5.2057 5.33546 5.79883 4.60377 5.79883ZM12.9162 12.5495C12.9162 12.7159 12.7813 12.8507 12.615 12.8507H11.1186C10.9523 12.8507 10.8174 12.7159 10.8174 12.5495V9.80757C10.8174 9.39853 10.9374 8.01515 9.74845 8.01515C8.82622 8.01515 8.63916 8.96203 8.6016 9.38697V12.5495C8.6016 12.7159 8.46676 12.8507 8.30039 12.8507H6.85312C6.68679 12.8507 6.55192 12.7159 6.55192 12.5495V6.65108C6.55192 6.48474 6.68679 6.34987 6.85312 6.34987H8.30039C8.46673 6.34987 8.6016 6.48474 8.6016 6.65108V7.16108C8.94356 6.64789 9.45176 6.25178 10.5338 6.25178C12.9299 6.25178 12.9162 8.49035 12.9162 9.72033V12.5495Z" fill="#0077B7"/>
</g>
</svg>
